<svg width="459" height="661" viewBox="0 0 459 661" fill="none" xmlns="http://www.w3.org/2000/svg">
<path d="M450.946 0H157.727C154.692 0 152.673 3.13636 153.928 5.89886L202.29 112.293C202.967 113.783 204.452 114.739 206.088 114.739H360.027C361.247 114.739 362.407 114.205 363.199 113.277L454.118 6.8829C456.432 4.17518 454.508 0 450.946 0Z" fill="#A3B4DA"/>
<path d="M38.074 0H4.17233C1.86802 0 0 1.86802 0 4.17234V258.685C0 260.989 1.86802 262.857 4.17233 262.857H162.3C165.385 262.857 167.403 259.626 166.05 256.855L41.8235 2.34221C41.124 0.909053 39.6687 0 38.074 0Z" fill="#A3B4DA"/>
<path d="M416.247 276.417H293.369C290.324 276.417 288.305 279.573 289.581 282.338L335.797 382.474C336.479 383.952 337.958 384.898 339.586 384.898H416.198C417.507 384.898 418.74 384.284 419.529 383.239L458.066 332.177C459.206 330.666 459.187 328.578 458.019 327.089L419.53 278.015C418.739 277.006 417.528 276.417 416.247 276.417Z" fill="#A3B4DA"/>
<path d="M124.206 654.222L7.89801 423.512C5.91941 419.588 0 420.995 0 425.391V656.1C0 658.404 1.86801 660.272 4.17233 660.272H120.48C123.588 660.272 125.605 656.997 124.206 654.222Z" fill="#A3B4DA"/>
<path d="M199.229 384.898H108.114C104.969 384.898 102.955 388.246 104.428 391.025L246.035 658.055C246.758 659.419 248.177 660.272 249.721 660.272H450.892C454.463 660.272 456.384 656.079 454.052 653.375L363.198 548.023C362.406 547.104 361.252 546.576 360.039 546.576H207.574C205.269 546.576 203.401 544.708 203.401 542.404V389.07C203.401 386.766 201.533 384.898 199.229 384.898Z" fill="#A3B4DA"/>
</svg>
